<svg xmlns="http://www.w3.org/2000/svg" xmlns:xlink="http://www.w3.org/1999/xlink" width="500" zoomAndPan="magnify" viewBox="0 0 375 374.999991" height="500" preserveAspectRatio="xMidYMid meet" version="1.0"><defs><clipPath id="979ba38e76"><path d="M 17.25 0 L 357.75 0 C 362.324219 0 366.710938 1.816406 369.949219 5.050781 C 373.183594 8.289062 375 12.675781 375 17.25 L 375 357.75 C 375 362.324219 373.183594 366.710938 369.949219 369.949219 C 366.710938 373.183594 362.324219 375 357.75 375 L 17.25 375 C 12.675781 375 8.289062 373.183594 5.050781 369.949219 C 1.816406 366.710938 0 362.324219 0 357.75 L 0 17.25 C 0 12.675781 1.816406 8.289062 5.050781 5.050781 C 8.289062 1.816406 12.675781 0 17.25 0 Z M 17.25 0 " clip-rule="nonzero"/></clipPath><clipPath id="e1d180bb73"><path d="M 21 0 L 334 0 L 334 375 L 21 375 Z M 21 0 " clip-rule="nonzero"/></clipPath><clipPath id="0304f8a623"><path d="M 356.90625 460.398438 L 173.28125 508.21875 L -42.757812 -321.363281 L 140.867188 -369.183594 Z M 356.90625 460.398438 " clip-rule="nonzero"/></clipPath><clipPath id="c91684805a"><path d="M 357.570312 460.226562 L 172.492188 508.421875 L -43.546875 -321.15625 L 141.53125 -369.355469 Z M 357.570312 460.226562 " clip-rule="nonzero"/></clipPath><clipPath id="4f2c56b076"><path d="M 32 79 L 95 79 L 95 315 L 32 315 Z M 32 79 " clip-rule="nonzero"/></clipPath><clipPath id="0dadc744b8"><path d="M -53.53125 178.171875 L 50.460938 79.652344 L 179.929688 216.3125 L 75.933594 314.832031 Z M -53.53125 178.171875 " clip-rule="nonzero"/></clipPath><clipPath id="71fd35188c"><path d="M -53.53125 178.171875 L 50.460938 79.652344 L 179.929688 216.3125 L 75.933594 314.832031 Z M -53.53125 178.171875 " clip-rule="nonzero"/></clipPath><clipPath id="1b80273781"><path d="M 243 0 L 291 0 L 291 89 L 243 89 Z M 243 0 " clip-rule="nonzero"/></clipPath><clipPath id="a01440acae"><path d="M 171.277344 -6.621094 L 243.546875 -97.679688 L 363.386719 -2.5625 L 291.121094 88.492188 Z M 171.277344 -6.621094 " clip-rule="nonzero"/></clipPath><clipPath id="f1286247dd"><path d="M 171.277344 -6.621094 L 243.546875 -97.679688 L 363.386719 -2.5625 L 291.121094 88.492188 Z M 171.277344 -6.621094 " clip-rule="nonzero"/></clipPath></defs><g clip-path="url(#979ba38e76)"><rect x="-37.5" width="450" fill="#fa4616" y="-37.499999" height="449.999989" fill-opacity="1"/></g><g clip-path="url(#e1d180bb73)"><g clip-path="url(#0304f8a623)"><g clip-path="url(#c91684805a)"><path fill="#ffffff" d="M 124.261719 319.507812 L 193.65625 494.085938 C 195.421875 498.5625 200.257812 501.042969 205.019531 499.804688 L 206.558594 499.402344 C 211.742188 498.054688 214.8125 492.617188 213.324219 487.46875 L 150.90625 275.925781 L 175.976562 269.394531 L 231.605469 483.007812 C 232.957031 488.191406 238.113281 491.335938 243.296875 489.984375 L 245.257812 489.472656 C 250.4375 488.125 253.40625 482.863281 252.09375 477.820312 L 196.464844 264.207031 L 217.476562 258.738281 L 273.070312 472.210938 C 274.417969 477.394531 279.714844 480.5 284.757812 479.1875 C 289.941406 477.839844 293.046875 472.542969 291.734375 467.5 L 236.472656 255.285156 L 261.964844 248.648438 L 310.992188 462.183594 C 312.203125 467.402344 317.535156 470.652344 322.859375 469.265625 L 326.21875 468.390625 C 330.980469 467.148438 333.992188 462.625 333.3125 457.71875 L 305.515625 261.386719 C 305.515625 261.386719 304.421875 257.183594 303.984375 255.503906 C 296.066406 231.988281 279.699219 213.367188 259.4375 202.1875 C 259.261719 202.085938 259.085938 201.980469 259.050781 201.84375 C 214.023438 174.828125 197.5 133.210938 191.035156 96.902344 C 189.925781 90.910156 189.128906 84.984375 188.546875 79.304688 L 197.652344 76.933594 L 127.796875 -191.308594 L 94.75 -318.21875 C 94.710938 -318.359375 94.710938 -318.359375 94.675781 -318.496094 C 93.214844 -324.101562 90.605469 -328.957031 87.125 -333.132812 C 86.734375 -333.480469 86.484375 -333.867188 86.09375 -334.210938 C 85.917969 -334.316406 85.882812 -334.457031 85.667969 -334.699219 C 85.457031 -334.945312 85.066406 -335.289062 84.855469 -335.535156 C 84.429688 -336.023438 84.039062 -336.371094 83.472656 -336.820312 C 83.472656 -336.820312 83.296875 -336.921875 83.296875 -336.921875 C 74.335938 -344.910156 61.589844 -348.472656 48.984375 -345.1875 C 28.953125 -339.972656 17.078125 -319.53125 22.257812 -299.640625 L 125.234375 95.792969 L 138.402344 92.363281 C 140.804688 97.570312 143.242188 102.917969 145.371094 108.792969 C 156.808594 140.070312 161.453125 180.890625 137.035156 228.980469 C 120.4375 251.402344 113.597656 280.851562 121.183594 309.988281 C 121.878906 312.648438 124.261719 319.507812 124.261719 319.507812 Z M 124.261719 319.507812 " fill-opacity="1" fill-rule="nonzero"/></g></g></g><g clip-path="url(#4f2c56b076)"><g clip-path="url(#0dadc744b8)"><g clip-path="url(#71fd35188c)"><path fill="#ffffff" d="M 50.378906 79.734375 L 32.785156 213.371094 L 51.765625 196.128906 L 51.375 252.410156 L 68.78125 237.390625 L 76.128906 315.035156 L 94.105469 181.027344 L 74.007812 197.863281 L 76.332031 139.746094 L 58.171875 154.746094 Z M 50.378906 79.734375 " fill-opacity="1" fill-rule="nonzero"/></g></g></g><g clip-path="url(#1b80273781)"><g clip-path="url(#a01440acae)"><g clip-path="url(#f1286247dd)"><path fill="#ffffff" d="M 243.351562 -97.429688 L 244.515625 11.742188 L 257.765625 -4.253906 L 263.882812 40.921875 L 276.125 26.886719 L 290.890625 88.308594 L 289.992188 -21.199219 L 275.796875 -5.402344 L 271.023438 -52.273438 L 258.171875 -38.167969 Z M 243.351562 -97.429688 " fill-opacity="1" fill-rule="nonzero"/></g></g></g></svg>